<svg width="434" height="434" viewBox="0 0 434 434" fill="none" xmlns="http://www.w3.org/2000/svg">
<mask id="mask0_124_165" style="mask-type:alpha" maskUnits="userSpaceOnUse" x="63" y="63" width="308" height="308">
<circle cx="216.869" cy="216.869" r="153.35" transform="rotate(-45 216.869 216.869)" fill="#E1ED39"/>
</mask>
<g mask="url(#mask0_124_165)">
<circle cx="216.869" cy="216.869" r="153.35" transform="rotate(-45 216.869 216.869)" fill="#D0D0D0"/>
<path d="M7.84428 257.936C54.2247 211.555 129.422 211.555 175.803 257.936C222.183 304.316 222.183 379.514 175.803 425.894C129.423 472.275 54.2247 472.275 7.84428 425.894C-38.5361 379.514 -38.5361 304.316 7.84428 257.936ZM19.8416 269.933C-19.913 309.688 -19.9137 374.143 19.8409 413.898C59.5956 453.652 124.051 453.652 163.806 413.897C203.56 374.142 203.56 309.688 163.806 269.933C124.051 230.178 59.5963 230.179 19.8416 269.933Z" fill="white"/>
<path d="M257.475 8.30531C303.855 -38.075 379.053 -38.0751 425.433 8.30531C471.813 54.6857 471.813 129.884 425.433 176.264C379.053 222.644 303.855 222.644 257.475 176.264C211.094 129.883 211.094 54.6857 257.475 8.30531ZM269.472 20.3027C229.717 60.0573 229.717 124.512 269.472 164.267C309.227 204.021 373.681 204.021 413.436 164.267C453.19 124.512 453.19 60.0572 413.436 20.3026C373.681 -19.4519 309.227 -19.4518 269.472 20.3027Z" fill="white"/>
</g>
</svg>
