<svg width="991" height="434" viewBox="0 0 991 434" fill="none" xmlns="http://www.w3.org/2000/svg">
<mask id="mask0_124_174" style="mask-type:alpha" maskUnits="userSpaceOnUse" x="63" y="63" width="308" height="308">
<circle cx="216.869" cy="216.869" r="153.35" transform="rotate(-45 216.869 216.869)" fill="#E1ED39"/>
</mask>
<g mask="url(#mask0_124_174)">
<circle cx="216.869" cy="216.869" r="153.35" transform="rotate(-45 216.869 216.869)" fill="#D0D0D0"/>
<path d="M7.8444 257.936C54.2248 211.555 129.423 211.555 175.803 257.936C222.183 304.316 222.183 379.514 175.803 425.894C129.423 472.275 54.2248 472.275 7.84441 425.894C-38.536 379.514 -38.536 304.316 7.8444 257.936ZM19.8417 269.933C-19.9129 309.688 -19.9136 374.143 19.8411 413.898C59.5957 453.652 124.051 453.652 163.806 413.897C203.56 374.142 203.56 309.688 163.806 269.933C124.051 230.178 59.5964 230.179 19.8417 269.933Z" fill="white"/>
<path d="M257.475 8.30533C303.855 -38.0749 379.053 -38.075 425.433 8.30532C471.813 54.6857 471.813 129.884 425.433 176.264C379.053 222.644 303.855 222.644 257.475 176.264C211.094 129.884 211.094 54.6857 257.475 8.30533ZM269.472 20.3027C229.717 60.0573 229.717 124.512 269.472 164.267C309.227 204.021 373.681 204.021 413.436 164.267C453.19 124.512 453.19 60.0573 413.436 20.3027C373.681 -19.4519 309.227 -19.4518 269.472 20.3027Z" fill="white"/>
</g>
<ellipse cx="657.745" cy="145.428" rx="261.163" ry="7.5" transform="rotate(0.0496739 657.745 145.428)" fill="#D0D0D0"/>
<ellipse cx="711.016" cy="220.485" rx="279.5" ry="7.5" transform="rotate(0.0496739 711.016 220.485)" fill="#D0D0D0"/>
<ellipse cx="657.615" cy="295.428" rx="261.164" ry="7.5" transform="rotate(0.0496739 657.615 295.428)" fill="#D0D0D0"/>
<ellipse cx="580.808" cy="370.335" rx="288.421" ry="7.5" transform="rotate(0.0496739 580.808 370.335)" fill="#D0D0D0"/>
<ellipse cx="581.268" cy="70.3355" rx="288.621" ry="7.5" transform="rotate(0.0496739 581.268 70.3355)" fill="#D0D0D0"/>
</svg>
